# xmcd
#
# Track frame offsets:
#	150
#	14858
#	29507
#	48349
#	63688
#	82234
#	99475
#	120458
#	140074
#	157135
#	173385
#	189551
#	205542
#
# Disc length: 2974 seconds
#
# Revision: 2
# Processed by: cddbd v1.5.2PL0 Copyright (c) Steve Scherf et al.
# Submitted via: audiograbber 1.83.01
#
DISCID=b90b9c0d
DTITLE=George Canyon - Better be home soon
DYEAR=2011
DGENRE=Country
TTITLE0=Never Miss Your Water
TTITLE1=Every Shade Of Gone
TTITLE2=Better Be Home Soon
TTITLE3=Surrender
TTITLE4=When Love Is All You've Got
TTITLE5=Power Of You And Me
TTITLE6=When November Falls
TTITLE7=Lonesome
TTITLE8=That's Where You Came In
TTITLE9=Real Thing
TTITLE10=Crawfish Crawl
TTITLE11=Sunshine
TTITLE12=Sacrifice
EXTD=
EXTT0=
EXTT1=
EXTT2=
EXTT3=
EXTT4=
EXTT5=
EXTT6=
EXTT7=
EXTT8=
EXTT9=
EXTT10=
EXTT11=
EXTT12=
PLAYORDER=
